The Patriot 2000 BRRip H264 AAC-MS.mp4
Format : MPEG-4
Format profile : Base Media
Codec ID : isom
File size : 2.04 GiB
Duration : 2h 55mn
Overall bit rate : 1 668 Kbps

Video #1
Format : AVC
Format/Info : Advanced Video Codec
Format profile : High@L4.1
Format settings, CABAC : Yes
Format settings, ReFrames : 3 frames
Codec ID : avc1
Codec ID/Info : Advanced Video Coding
Duration : 2h 55mn
Bit rate mode : Variable
Bit rate : 1 347 Kbps
Maximum bit rate : 10.5 Mbps
Width : 1 280 pixels
Height : 528 pixels
Display aspect ratio : 2.424
Frame rate mode : Constant
Frame rate : 23.976 fps
Resolution : 24 bits
Colorimetry : 4:2:0
Scan type : Progressive
Bits/(Pixel*Frame) : 0.083
Stream size : 1.65 GiB (81%)
Writing library : x264 core 92 r1510 33d382a

Audio #2
Format : AAC
Format/Info : Advanced Audio Codec
Format version : Version 4
Format profile : LC
Format settings, SBR : No
Codec ID : 40
Duration : 2h 55mn
Bit rate mode : Variable
Bit rate : 318 Kbps
Maximum bit rate : 417 Kbps
Channel(s) : 6 channels
Channel positions : Front: L C R, Rear: L R, LFE
Sampling rate : 48.0 KHz
Resolution : 16 bits
Stream size : 398 MiB (19%)